<?xml version="1.0" encoding="utf-8"?>
<!-- Generator: Adobe Illustrator 17.0.0, SVG Export Plug-In . SVG Version: 6.00 Build 0)  -->
<!DOCTYPE svg PUBLIC "-//W3C//DTD SVG 1.1//EN" "http://www.w3.org/Graphics/SVG/1.1/DTD/svg11.dtd">
<svg version="1.1" id="Livello_1" xmlns="http://www.w3.org/2000/svg" xmlns:xlink="http://www.w3.org/1999/xlink" x="0px" y="0px"
	 width="150px" height="150px" viewBox="0 0 150 150" enable-background="new 0 0 150 150" xml:space="preserve">
<g id="Layer_1">
</g>
<g id="Livello_2">
	<g>
		<path fill="#009688" d="M93,43c2.205,0,4-1.794,4-4s-1.795-4-4-4s-4,1.794-4,4S90.795,43,93,43z"/>
		<path fill="#009688" d="M31,113h88V47H31V113z M83.249,84.141l15.2-5.967l-15.2-5.882v-6.076L105,75.6v5.189L83.249,90.26V84.141z
			 M69.8,90l6.033-24.93c0.317-1.326,0.619-2.234,0.907-2.724c0.289-0.49,0.851-0.735,1.688-0.735c0.721,0,1.271,0.173,1.653,0.519
			s0.573,0.822,0.573,1.427c0,0.447-0.152,1.261-0.454,2.443l-6.055,24.93c-0.201,0.821-0.377,1.471-0.529,1.946
			c-0.151,0.476-0.382,0.849-0.691,1.112c-0.31,0.268-0.761,0.4-1.352,0.4c-1.47,0-2.206-0.636-2.206-1.902
			C69.367,92.154,69.512,91.326,69.8,90z M45,75.557l21.751-9.427v6.162l-15.156,5.839l15.156,5.967v6.119L45,80.789V75.557z"/>
		<path fill="#009688" d="M104,43c2.205,0,4-1.794,4-4s-1.795-4-4-4s-4,1.794-4,4S101.795,43,104,43z"/>
		<path fill="#009688" d="M75,2.5C34.959,2.5,2.5,34.959,2.5,75s32.459,72.5,72.5,72.5s72.5-32.459,72.5-72.5S115.041,2.5,75,2.5z
			 M125,113c0,3.312-2.686,6-6,6H31c-3.313,0-6-2.687-6-6V37c0-3.313,2.687-6,6-6h88c3.314,0,6,2.686,6,6V113z"/>
		<path fill="#009688" d="M115,35c-2.205,0-4,1.794-4,4s1.795,4,4,4s4-1.794,4-4S117.205,35,115,35z"/>
	</g>
</g>
</svg>
