<?xml version="1.0" encoding="utf-8"?>
<!-- Generator: Adobe Illustrator 17.0.0, SVG Export Plug-In . SVG Version: 6.00 Build 0)  -->
<!DOCTYPE svg PUBLIC "-//W3C//DTD SVG 1.1//EN" "http://www.w3.org/Graphics/SVG/1.1/DTD/svg11.dtd">
<svg version="1.1" xmlns="http://www.w3.org/2000/svg" xmlns:xlink="http://www.w3.org/1999/xlink" x="0px" y="0px" width="100px"
	 height="100px" viewBox="0 0 100 100" enable-background="new 0 0 100 100" xml:space="preserve">
<g id="Livello_2">
</g>
<g id="Layer_1">
	<path fill="#009688" d="M50,2.5C23.766,2.5,2.5,23.766,2.5,50S23.766,97.5,50,97.5S97.5,76.234,97.5,50S76.234,2.5,50,2.5z
		 M38.962,43.405l-20.281,7.813l20.281,7.985v8.188L9.856,54.775v-7.001l29.106-12.615V43.405z M56.958,34.985l-8.102,33.36
		c-0.269,1.099-0.505,1.968-0.708,2.604c-0.202,0.637-0.511,1.136-0.925,1.488c-0.415,0.359-1.018,0.535-1.809,0.535
		c-1.967,0-2.952-0.851-2.952-2.545c0-0.444,0.194-1.552,0.579-3.327l8.073-33.36c0.424-1.774,0.828-2.989,1.214-3.645
		c0.387-0.656,1.139-0.984,2.259-0.984c0.965,0,1.701,0.232,2.212,0.695s0.767,1.1,0.767,1.91
		C57.566,32.314,57.362,33.403,56.958,34.985z M61.038,67.448V59.26l20.34-7.985l-20.34-7.871v-8.131l29.106,12.557v6.944
		L61.038,67.448z"/>
</g>
</svg>
